# xmcd
#
# Track frame offsets:
#	150
#	18622
#	37234
#	53976
#	74558
#	95756
#	117498
#	135553
#	153791
#
# Disc length: 2312 seconds
# Revision: 0
# Processed by: cddbd v1.5.2PL0 Copyright (c) Steve Scherf et al.
# Submitted via: dBpowerAMP V12.0
#
DISCID=83090609
DTITLE=Swade - Back To The Funk
DYEAR=2007
DGENRE=Funk
TTITLE0=Peace Around The World
TTITLE1=Feel It
TTITLE2=Hang On
TTITLE3=I'm Your Paradise
TTITLE4=Too Young To Love
TTITLE5=Music
TTITLE6=Aklways On My Mind
TTITLE7=Be With You
TTITLE8=Only Wanna Give
EXTD=
EXTT0=
EXTT1=
EXTT2=
EXTT3=
EXTT4=
EXTT5=
EXTT6=
EXTT7=
EXTT8=
PLAYORDER=
